<svg xmlns="http://www.w3.org/2000/svg" xmlns:xlink="http://www.w3.org/1999/xlink" width="500" zoomAndPan="magnify" viewBox="0 0 375 374.999991" height="500" preserveAspectRatio="xMidYMid meet" version="1.0"><defs><clipPath id="059397870b"><path d="M 38 38 L 337.5 38 L 337.5 337 L 38 337 Z M 38 38 " clip-rule="nonzero"/></clipPath></defs><path fill="#1c1c1c" d="M 58.429688 233.148438 L 58.429688 261.453125 L 55.539062 264.34375 C 55.074219 264.808594 54.570312 265.222656 54.023438 265.585938 C 53.476562 265.953125 52.898438 266.261719 52.292969 266.511719 C 51.6875 266.761719 51.0625 266.953125 50.417969 267.078125 C 49.773438 267.207031 49.121094 267.273438 48.464844 267.273438 C 47.808594 267.269531 47.15625 267.207031 46.511719 267.078125 C 45.867188 266.949219 45.242188 266.761719 44.636719 266.507812 C 44.027344 266.257812 43.453125 265.949219 42.90625 265.585938 C 42.359375 265.21875 41.855469 264.804688 41.390625 264.339844 C 40.925781 263.875 40.511719 263.371094 40.144531 262.824219 C 39.78125 262.277344 39.472656 261.703125 39.222656 261.09375 C 38.96875 260.488281 38.78125 259.863281 38.652344 259.21875 C 38.523438 258.574219 38.460938 257.921875 38.460938 257.265625 C 38.460938 256.609375 38.523438 255.957031 38.652344 255.316406 C 38.777344 254.671875 38.96875 254.042969 39.21875 253.4375 C 39.472656 252.832031 39.777344 252.253906 40.144531 251.707031 C 40.507812 251.160156 40.921875 250.65625 41.386719 250.191406 Z M 58.429688 233.148438 " fill-opacity="1" fill-rule="nonzero"/><g clip-path="url(#059397870b)"><path fill="#1c1c1c" d="M 307.601562 38 L 68.398438 38 C 67.417969 38 66.441406 38.050781 65.46875 38.152344 C 64.496094 38.25 63.527344 38.394531 62.570312 38.585938 C 61.609375 38.78125 60.664062 39.019531 59.726562 39.304688 C 58.792969 39.589844 57.871094 39.921875 56.96875 40.296875 C 56.066406 40.675781 55.183594 41.09375 54.320312 41.554688 C 53.457031 42.015625 52.621094 42.519531 51.804688 43.066406 C 50.992188 43.609375 50.207031 44.191406 49.453125 44.8125 C 48.695312 45.433594 47.972656 46.089844 47.28125 46.78125 C 46.589844 47.472656 45.933594 48.199219 45.3125 48.953125 C 44.691406 49.710938 44.109375 50.496094 43.5625 51.308594 C 43.019531 52.121094 42.515625 52.960938 42.054688 53.820312 C 41.589844 54.683594 41.171875 55.566406 40.796875 56.46875 C 40.421875 57.375 40.089844 58.292969 39.804688 59.230469 C 39.519531 60.164062 39.277344 61.113281 39.085938 62.070312 C 38.894531 63.03125 38.746094 63.996094 38.648438 64.972656 C 38.550781 65.945312 38.5 66.921875 38.496094 67.898438 L 38.496094 307.101562 C 38.5 308.078125 38.550781 309.054688 38.648438 310.027344 C 38.746094 311.003906 38.894531 311.96875 39.085938 312.929688 C 39.277344 313.886719 39.519531 314.835938 39.804688 315.769531 C 40.089844 316.707031 40.421875 317.625 40.796875 318.53125 C 41.171875 319.433594 41.589844 320.316406 42.054688 321.179688 C 42.515625 322.039062 43.019531 322.878906 43.5625 323.691406 C 44.109375 324.503906 44.691406 325.289062 45.3125 326.046875 C 45.933594 326.800781 46.589844 327.527344 47.28125 328.21875 C 47.972656 328.910156 48.695312 329.566406 49.453125 330.1875 C 50.207031 330.808594 50.992188 331.390625 51.804688 331.933594 C 52.621094 332.480469 53.457031 332.984375 54.320312 333.445312 C 55.183594 333.90625 56.066406 334.324219 56.96875 334.703125 C 57.871094 335.078125 58.792969 335.410156 59.726562 335.695312 C 60.664062 335.980469 61.609375 336.21875 62.570312 336.414062 C 63.527344 336.605469 64.496094 336.75 65.46875 336.847656 C 66.441406 336.949219 67.417969 337 68.398438 337 L 307.601562 337 C 308.578125 337 309.554688 336.949219 310.527344 336.851562 C 311.5 336.75 312.46875 336.605469 313.425781 336.414062 C 314.386719 336.21875 315.332031 335.980469 316.269531 335.695312 C 317.207031 335.410156 318.125 335.078125 319.027344 334.703125 C 319.929688 334.324219 320.816406 333.90625 321.675781 333.445312 C 322.539062 332.984375 323.378906 332.480469 324.191406 331.933594 C 325.003906 331.390625 325.789062 330.808594 326.542969 330.1875 C 327.300781 329.566406 328.023438 328.910156 328.714844 328.21875 C 329.40625 327.527344 330.066406 326.800781 330.6875 326.046875 C 331.308594 325.289062 331.890625 324.503906 332.433594 323.691406 C 332.976562 322.878906 333.480469 322.042969 333.941406 321.179688 C 334.40625 320.316406 334.824219 319.433594 335.199219 318.53125 C 335.574219 317.625 335.90625 316.707031 336.191406 315.769531 C 336.476562 314.835938 336.71875 313.886719 336.910156 312.929688 C 337.105469 311.96875 337.25 311.003906 337.347656 310.027344 C 337.445312 309.054688 337.496094 308.078125 337.5 307.101562 L 337.5 67.898438 C 337.496094 66.921875 337.445312 65.945312 337.347656 64.972656 C 337.25 63.996094 337.105469 63.03125 336.910156 62.070312 C 336.71875 61.113281 336.476562 60.164062 336.191406 59.230469 C 335.90625 58.292969 335.574219 57.375 335.199219 56.46875 C 334.824219 55.566406 334.40625 54.683594 333.941406 53.820312 C 333.480469 52.960938 332.976562 52.121094 332.433594 51.308594 C 331.890625 50.496094 331.308594 49.710938 330.6875 48.953125 C 330.066406 48.199219 329.40625 47.472656 328.714844 46.78125 C 328.023438 46.089844 327.300781 45.433594 326.542969 44.8125 C 325.789062 44.191406 325.003906 43.609375 324.191406 43.066406 C 323.378906 42.519531 322.539062 42.015625 321.675781 41.554688 C 320.816406 41.09375 319.929688 40.675781 319.027344 40.296875 C 318.125 39.921875 317.207031 39.589844 316.269531 39.304688 C 315.332031 39.019531 314.386719 38.78125 313.425781 38.585938 C 312.46875 38.394531 311.5 38.25 310.527344 38.152344 C 309.554688 38.050781 308.578125 38 307.601562 38 Z M 317.566406 187.5 L 253.777344 139.660156 C 253.304688 139.300781 252.800781 138.984375 252.265625 138.714844 C 251.734375 138.445312 251.183594 138.226562 250.613281 138.054688 C 250.039062 137.886719 249.457031 137.769531 248.863281 137.703125 C 248.273438 137.636719 247.679688 137.625 247.082031 137.664062 C 246.488281 137.707031 245.902344 137.800781 245.324219 137.945312 C 244.746094 138.089844 244.183594 138.289062 243.640625 138.535156 C 243.097656 138.78125 242.582031 139.074219 242.089844 139.414062 C 241.601562 139.753906 241.144531 140.136719 240.722656 140.554688 L 179.726562 201.554688 L 310.820312 316.410156 C 309.785156 316.8125 308.710938 317.03125 307.601562 317.066406 L 281.386719 317.066406 L 124.808594 180.023438 C 124.339844 179.609375 123.832031 179.238281 123.292969 178.917969 C 122.753906 178.59375 122.1875 178.324219 121.59375 178.113281 C 121.003906 177.898438 120.398438 177.738281 119.777344 177.640625 C 119.15625 177.539062 118.53125 177.5 117.902344 177.515625 C 117.273438 177.535156 116.652344 177.613281 116.039062 177.75 C 115.425781 177.882812 114.828125 178.078125 114.25 178.324219 C 113.671875 178.574219 113.125 178.875 112.601562 179.226562 C 112.082031 179.582031 111.601562 179.980469 111.15625 180.421875 L 58.429688 233.148438 L 58.429688 67.898438 C 58.429688 67.246094 58.492188 66.597656 58.621094 65.953125 C 58.75 65.3125 58.9375 64.6875 59.1875 64.085938 C 59.4375 63.480469 59.746094 62.90625 60.109375 62.363281 C 60.472656 61.816406 60.886719 61.3125 61.347656 60.851562 C 61.8125 60.386719 62.316406 59.976562 62.859375 59.613281 C 63.402344 59.246094 63.976562 58.941406 64.582031 58.691406 C 65.1875 58.441406 65.8125 58.25 66.453125 58.125 C 67.09375 57.996094 67.742188 57.933594 68.398438 57.933594 L 307.601562 57.933594 C 308.253906 57.933594 308.902344 57.996094 309.542969 58.125 C 310.1875 58.25 310.808594 58.441406 311.414062 58.691406 C 312.019531 58.941406 312.59375 59.246094 313.136719 59.613281 C 313.679688 59.976562 314.183594 60.386719 314.648438 60.851562 C 315.109375 61.3125 315.523438 61.816406 315.886719 62.363281 C 316.25 62.90625 316.558594 63.480469 316.808594 64.085938 C 317.058594 64.6875 317.246094 65.3125 317.375 65.953125 C 317.503906 66.597656 317.566406 67.246094 317.566406 67.898438 Z M 317.566406 187.5 " fill-opacity="1" fill-rule="nonzero"/></g><path fill="#1c1c1c" d="M 178.03125 117.734375 C 178.03125 119.039062 177.96875 120.339844 177.839844 121.640625 C 177.710938 122.941406 177.519531 124.230469 177.265625 125.511719 C 177.011719 126.789062 176.695312 128.054688 176.316406 129.304688 C 175.9375 130.554688 175.496094 131.78125 174.996094 132.988281 C 174.496094 134.195312 173.941406 135.375 173.324219 136.527344 C 172.707031 137.675781 172.039062 138.796875 171.3125 139.882812 C 170.585938 140.96875 169.808594 142.015625 168.980469 143.023438 C 168.152344 144.035156 167.277344 145 166.355469 145.921875 C 165.429688 146.847656 164.464844 147.722656 163.457031 148.550781 C 162.445312 149.378906 161.398438 150.15625 160.3125 150.878906 C 159.226562 151.605469 158.109375 152.277344 156.957031 152.890625 C 155.804688 153.507812 154.628906 154.066406 153.421875 154.566406 C 152.214844 155.066406 150.988281 155.503906 149.738281 155.882812 C 148.488281 156.261719 147.222656 156.578125 145.941406 156.832031 C 144.660156 157.089844 143.371094 157.28125 142.070312 157.40625 C 140.773438 157.535156 139.46875 157.601562 138.164062 157.601562 C 136.859375 157.601562 135.554688 157.535156 134.257812 157.40625 C 132.957031 157.28125 131.667969 157.089844 130.386719 156.832031 C 129.105469 156.578125 127.839844 156.261719 126.589844 155.882812 C 125.34375 155.503906 124.113281 155.066406 122.90625 154.566406 C 121.703125 154.066406 120.523438 153.507812 119.371094 152.890625 C 118.21875 152.277344 117.101562 151.605469 116.015625 150.878906 C 114.929688 150.15625 113.882812 149.378906 112.871094 148.550781 C 111.863281 147.722656 110.898438 146.847656 109.972656 145.921875 C 109.050781 145 108.175781 144.035156 107.347656 143.023438 C 106.519531 142.015625 105.742188 140.96875 105.015625 139.882812 C 104.289062 138.796875 103.621094 137.675781 103.003906 136.527344 C 102.390625 135.375 101.832031 134.195312 101.332031 132.988281 C 100.832031 131.78125 100.394531 130.554688 100.015625 129.304688 C 99.636719 128.054688 99.316406 126.789062 99.0625 125.511719 C 98.808594 124.230469 98.617188 122.941406 98.488281 121.640625 C 98.359375 120.339844 98.296875 119.039062 98.296875 117.734375 C 98.296875 116.425781 98.359375 115.125 98.488281 113.824219 C 98.617188 112.527344 98.808594 111.234375 99.0625 109.953125 C 99.316406 108.675781 99.636719 107.410156 100.015625 106.160156 C 100.394531 104.910156 100.832031 103.683594 101.332031 102.476562 C 101.832031 101.269531 102.390625 100.089844 103.003906 98.9375 C 103.621094 97.789062 104.289062 96.667969 105.015625 95.582031 C 105.742188 94.496094 106.519531 93.449219 107.347656 92.441406 C 108.175781 91.433594 109.050781 90.464844 109.972656 89.542969 C 110.898438 88.617188 111.863281 87.742188 112.871094 86.914062 C 113.882812 86.085938 114.929688 85.308594 116.015625 84.585938 C 117.101562 83.859375 118.21875 83.1875 119.371094 82.574219 C 120.523438 81.957031 121.703125 81.398438 122.90625 80.898438 C 124.113281 80.402344 125.34375 79.960938 126.589844 79.582031 C 127.839844 79.203125 129.105469 78.886719 130.386719 78.632812 C 131.667969 78.375 132.957031 78.183594 134.257812 78.058594 C 135.554688 77.929688 136.859375 77.867188 138.164062 77.867188 C 139.46875 77.867188 140.773438 77.929688 142.070312 78.058594 C 143.371094 78.183594 144.660156 78.375 145.941406 78.632812 C 147.222656 78.886719 148.488281 79.203125 149.738281 79.582031 C 150.988281 79.960938 152.214844 80.402344 153.421875 80.898438 C 154.628906 81.398438 155.804688 81.957031 156.957031 82.574219 C 158.109375 83.1875 159.226562 83.859375 160.3125 84.585938 C 161.398438 85.308594 162.445312 86.085938 163.457031 86.914062 C 164.464844 87.742188 165.429688 88.617188 166.355469 89.542969 C 167.277344 90.464844 168.152344 91.433594 168.980469 92.441406 C 169.808594 93.449219 170.585938 94.496094 171.3125 95.582031 C 172.039062 96.667969 172.707031 97.789062 173.324219 98.9375 C 173.941406 100.089844 174.496094 101.269531 174.996094 102.476562 C 175.496094 103.683594 175.9375 104.910156 176.316406 106.160156 C 176.695312 107.410156 177.011719 108.675781 177.265625 109.953125 C 177.519531 111.234375 177.710938 112.527344 177.839844 113.824219 C 177.96875 115.125 178.03125 116.425781 178.03125 117.734375 Z M 178.03125 117.734375 " fill-opacity="1" fill-rule="nonzero"/></svg>